<?xml version="1.0" encoding="utf-8"?>
<!-- Generator: Adobe Illustrator 19.2.1, SVG Export Plug-In . SVG Version: 6.00 Build 0)  -->
<svg version="1.1" id="Layer_1" xmlns="http://www.w3.org/2000/svg" xmlns:xlink="http://www.w3.org/1999/xlink" x="0px" y="0px"
	 viewBox="0 0 25.811926 37" style="enable-background:new 0 0 25.811926 37;" xml:space="preserve">
<style type="text/css">
	.st0{fill:#FA645A;}
</style>
<path class="st0" d="M24.26421,8.316528c-0.567383-1.433105-1.375-2.700195-2.425293-3.800293
	c-1.049805-1.099609-2.308594-1.949524-3.774902-2.582825C16.596729,1.300598,14.946826,1,13.114306,1H0.69762v26.041626v4.149902
	V36h5v-5H19.69762v-4H5.697619v-2h7.416687c1.83252,0,3.482423-0.408142,4.949708-1.041931
	c1.466309-0.632813,2.725098-1.545868,3.774902-2.645966c1.050293-1.099609,1.85791-2.397934,2.425293-3.847641
	c0.566406-1.450195,0.850098-2.986565,0.850098-4.586662S24.830616,9.750122,24.26421,8.316528z M20.039112,15.891235
	c-0.350098,0.950195-0.850098,1.775391-1.5,2.475098c-0.649902,0.700195-1.433594,1.425476-2.350098,1.84198
	C15.272021,20.625305,14.247119,21,13.114306,21H5.697619V5h7.416687c1.132813,0,2.157715,0.24176,3.074708,0.658264
	c0.916504,0.416992,1.700195,1.000031,2.350098,1.716339c0.649902,0.717285,1.149902,1.558609,1.5,2.508316
	c0.350098,0.950195,0.524902,1.946541,0.524902,2.979256C20.564014,13.929558,20.38921,14.941528,20.039112,15.891235z"/>
</svg>
