<svg id="_1" data-name="1" xmlns="http://www.w3.org/2000/svg" viewBox="0 0 77 77"><defs><style>.cls-1{fill:#4c75a3;}</style></defs><title>social</title><path class="cls-1" d="M0,0V77H77V0H0ZM73.25,56.73c-0.38,2.35-4.33,1.93-7.83,2-3.23.1-6.4-.11-7.83-0.68-2.37-.94-8.58-9.17-10.21-8.85-3.64.71-2.32,8.32-3.4,8.85-1.55.76-6.59,0.53-8.51,0.34C25.24,56.7,19.3,49.84,13.7,41.06,6.84,30.33,2.78,22.28,4.51,21.32c1.89-1.05,7.19-.83,12.59-0.68,1.61,0,6.28,11.69,7.49,13.62,4.87,7.8,6.4,2,6.47,1.36C32.38,21.63,29,22.26,27,22c1.49-4.54,11.91-3.75,11.91-3.75A21.55,21.55,0,0,1,43.64,20c0.53,0.35,1.12,1.49,1,5.11C44.52,30.52,44,38,46.37,38c1.85,0,4.78-4.32,7.15-8.85,2.09-4,3.71-7.89,4.42-8.17s4.12-.32,7.49-0.34,6.62,0,7.49.68c1.74,1.47-1.29,6.25-4.08,10.21-2.3,3.26-6.71,7.55-6.47,9.87C62.71,44.65,74.11,51.48,73.25,56.73Z"/></svg>