<svg id="Layer_1" xmlns="http://www.w3.org/2000/svg" viewBox="0 0 25.811926 37"><style>.st0{fill:#fa645a}</style><path class="st0" d="M24.264 8.317a11.666 11.666 0 0 0-2.425-3.8c-1.05-1.1-2.309-1.95-3.775-2.584C16.597 1.301 14.947 1 13.114 1H.698v35h5v-5h14v-4h-14v-2h7.416a12.38 12.38 0 0 0 4.95-1.042 11.509 11.509 0 0 0 3.775-2.646c1.05-1.1 1.858-2.398 2.425-3.848.567-1.45.85-2.986.85-4.586s-.283-3.128-.85-4.561zM20.04 15.89a7.3 7.3 0 0 1-1.5 2.475c-.65.7-1.433 1.426-2.35 1.842-.917.417-1.942.792-3.075.792H5.698V5h7.416c1.133 0 2.158.242 3.075.658.917.417 1.7 1 2.35 1.717a7.63 7.63 0 0 1 1.5 2.508c.35.95.525 1.946.525 2.98 0 1.067-.175 2.079-.525 3.028z"/></svg>